<?xml version="1.0" standalone="no"?>
<!DOCTYPE svg PUBLIC "-//W3C//DTD SVG 20010904//EN"
 "http://www.w3.org/TR/2001/REC-SVG-20010904/DTD/svg10.dtd">
<svg version="1.0" xmlns="http://www.w3.org/2000/svg"
 width="512.000000pt" height="512.000000pt" viewBox="0 0 512.000000 512.000000"
 preserveAspectRatio="xMidYMid meet">

<g transform="translate(0.000000,512.000000) scale(0.100000,-0.100000)"
fill="#000000" stroke="none">
<path d="M2082 4900 c-57 -14 -108 -55 -136 -111 l-26 -53 0 -2177 0 -2177 28
-53 c20 -39 41 -62 77 -84 l48 -30 487 0 487 0 48 30 c36 22 57 45 77 84 l28
53 0 2178 0 2178 -28 53 c-20 39 -41 62 -77 84 l-48 30 -466 2 c-256 1 -481
-2 -499 -7z"/>
<path d="M3760 3824 c-45 -20 -87 -59 -111 -106 -18 -36 -19 -83 -19 -1688 0
-1467 2 -1655 15 -1688 20 -47 50 -78 100 -105 39 -21 51 -22 499 -25 532 -3
537 -3 605 74 28 32 43 61 51 97 8 37 10 512 8 1678 l-3 1626 -30 48 c-22 36
-45 57 -84 77 l-53 28 -472 0 c-398 -1 -476 -3 -506 -16z"/>
<path d="M329 2532 c-39 -20 -62 -41 -84 -77 l-30 -48 -3 -986 c-2 -725 0
-1000 8 -1040 10 -43 22 -64 60 -101 70 -71 78 -72 605 -68 l450 3 45 25 c24
14 58 45 75 68 l30 44 3 1024 c2 994 2 1025 -17 1062 -25 48 -66 87 -113 106
-32 14 -105 16 -507 16 l-469 0 -53 -28z"/>
</g>
</svg>
