<?xml version="1.0" standalone="no"?>
<!DOCTYPE svg PUBLIC "-//W3C//DTD SVG 20010904//EN" "http://www.w3.org/TR/2001/REC-SVG-20010904/DTD/svg10.dtd">
<svg version="1.0" xmlns="http://www.w3.org/2000/svg"
    width="512.000000pt" height="512.000000pt" viewBox="0 0 512.000000 512.000000"
    preserveAspectRatio="xMidYMid meet">

    <g transform="translate(0.000000,512.000000) scale(0.100000,-0.100000)"
        fill="#000000" stroke="none">
        <path
            d="M3764 4471 c-48 -12 -133 -62 -160 -94 -14 -17 -37 -53 -52 -81 l-27
-51 0 -1685 0 -1685 27 -51 c40 -76 70 -107 140 -145 l63 -34 245 0 245 0 52
27 c66 35 116 85 151 151 l27 52 0 1685 0 1685 -27 52 c-35 66 -85 116 -151
150 -52 28 -53 28 -277 30 -124 1 -239 -2 -256 -6z" />
        <path
            d="M2325 3511 c-91 -23 -173 -90 -215 -176 l-25 -50 0 -1205 0 -1205 34
-63 c38 -70 69 -100 145 -140 l51 -27 245 0 245 0 51 27 c76 40 107 70 145
140 l34 63 0 1205 0 1205 -27 51 c-40 76 -70 107 -140 145 l-63 34 -225 2
c-124 1 -238 -2 -255 -6z" />
        <path
            d="M884 2551 c-48 -12 -133 -62 -160 -94 -14 -17 -37 -53 -52 -81 l-27
-51 0 -725 0 -725 27 -51 c40 -76 70 -107 140 -145 l63 -34 245 0 245 0 63 34
c70 38 100 69 140 145 l27 51 0 725 0 725 -34 63 c-37 69 -80 109 -151 144
-42 21 -59 23 -270 25 -124 1 -239 -2 -256 -6z" />
    </g>
</svg>